<?xml version="1.0" encoding="UTF-8"?>
<svg width="24px" height="24px" viewBox="0 0 24 24" version="1.1" xmlns="http://www.w3.org/2000/svg" xmlns:xlink="http://www.w3.org/1999/xlink">
    <title>icon/bukejian</title>
    <g id="icon/bukejian" stroke="none" stroke-width="1" fill="none" fill-rule="evenodd">
        <path d="M5.3933624,8.08336785 C5.39513291,8.08556114 5.39685685,8.08779161 5.39853307,8.09005776 C5.4002231,8.09234256 5.40187018,8.09456501 5.40347434,8.0967251 C6.98694358,10.2289587 9.38979631,11.4998856 11.9915357,11.4998856 C14.5885283,11.4998856 16.9769253,10.2534973 18.5544344,8.15132577 L18.5969825,8.09272136 C18.661877,8.0033377 18.7869442,7.98348534 18.8763279,8.04837986 L18.884032,8.05426355 L18.884032,8.05426355 L19.9175563,8.8839874 C20.0007799,8.95077655 20.0168974,9.07113838 19.954193,9.15748137 C19.9490167,9.16460893 19.9441846,9.17123603 19.9396966,9.17736267 C19.3193927,10.0241412 18.5905501,10.7584639 17.779988,11.363094 L19.7902467,13.7592241 C19.8612471,13.8438391 19.8502103,13.9699902 19.7655954,14.0409905 L18.6989961,14.9359736 C18.6143811,15.006974 18.48823,14.9959372 18.4172297,14.9113222 L16.234311,12.3097054 C15.1953449,12.8208347 14.0688145,13.1449681 12.8960928,13.2555154 L12.8957561,15.6986206 C12.8957561,15.8090776 12.806213,15.8986206 12.6957561,15.8986206 L11.3034096,15.8986206 C11.1929526,15.8986206 11.1034096,15.8090776 11.1034096,15.6986206 L11.1030177,13.2565116 C9.93170513,13.1467947 8.80516644,12.8216588 7.76515533,12.3086587 L5.58193603,14.9113222 C5.51093567,14.9959372 5.38478455,15.006974 5.30016962,14.9359736 L4.23357033,14.0409905 C4.1489554,13.9699902 4.1379186,13.8438391 4.20891896,13.7592241 L6.22113636,11.3616014 C5.43497496,10.7749475 4.72467496,10.0666134 4.11474709,9.25277471 L4.04592536,9.15817859 C3.98323616,9.07201168 3.99911354,8.95182564 4.08202807,8.88489395 L5.11210067,8.05338111 C5.19804514,7.98397987 5.32397549,7.9974118 5.3933624,8.08336785 Z" id="形状结合" fill="#C9D3E6"></path>
    </g>
</svg>