<?xml version="1.0" encoding="UTF-8"?>
<svg width="232px" height="24px" viewBox="0 0 232 24" version="1.1" xmlns="http://www.w3.org/2000/svg" xmlns:xlink="http://www.w3.org/1999/xlink">
    <title>logo</title>
    <defs>
        <polygon id="path-1" points="0.000182464455 0.232920635 10.1127275 0.232920635 10.1127275 9.6912873 0.000182464455 9.6912873"></polygon>
        <polygon id="path-3" points="0 23 230.684336 23 230.684336 0.232920635 0 0.232920635"></polygon>
    </defs>
    <g id="控件" stroke="none" stroke-width="1" fill="none" fill-rule="evenodd">
        <g id="顶部导航" transform="translate(-1670.000000, -26.000000)">
            <g id="logo" transform="translate(1670.000000, 26.000000)">
                <polygon id="Fill-1" fill="#FEFEFE" points="28.84375 0.306338028 28.84375 1.72406297 31.8994257 1.72406297 31.8994257 9.30633803 34.7498562 9.30633803 34.7498562 1.72406297 37.84375 1.72406297 37.84375 0.306338028"></polygon>
                <g id="编组" transform="translate(0.843750, 0.306338)">
                    <g>
                        <mask id="mask-2" fill="white">
                            <use xlink:href="#path-1"></use>
                        </mask>
                        <g id="Clip-3"></g>
                        <path d="M6.59298815,9.6912873 C10.1127275,9.6912873 10.1127275,7.58404921 10.1127275,6.67390635 L10.1127275,0.232811111 L7.19366114,0.232811111 L7.19366114,6.86776349 C7.19366114,7.54425556 7.05754265,8.18277937 6.24484597,8.18277937 L3.84726303,8.18277937 C3.05463744,8.18277937 2.91997867,7.54425556 2.91997867,6.86776349 L2.91997867,0.232811111 L0.000182464455,0.232811111 L0.000182464455,6.67390635 C0.000182464455,7.58404921 0.000182464455,9.6912873 3.51919194,9.6912873 L6.59298815,9.6912873 Z" id="Fill-2" fill="#FEFEFE" mask="url(#mask-2)"></path>
                    </g>
                    <mask id="mask-4" fill="white">
                        <use xlink:href="#path-3"></use>
                    </mask>
                    <g id="Clip-5"></g>
                    <polygon id="Fill-4" fill="#FEFEFE" mask="url(#mask-4)" points="23.5890047 9.69103175 26.431436 9.69103175 26.431436 0.232555556 23.5890047 0.232555556"></polygon>
                    <path d="M55.8733531,6.86761746 C55.8733531,7.5444746 55.7379645,8.18299841 54.9453389,8.18299841 L51.6007654,8.18299841 L51.6007654,1.72255397 L54.9453389,1.72255397 C55.7379645,1.72255397 55.8733531,2.37969683 55.8733531,3.05655397 L55.8733531,6.86761746 Z M55.2927512,0.232665079 L48.6853483,0.232665079 L48.6853483,9.69114127 L55.2927512,9.69114127 C58.7920545,9.69114127 58.8110308,7.58390317 58.8110308,6.6741254 L58.8110308,3.25004603 C58.8110308,2.34136349 58.7920545,0.232665079 55.2927512,0.232665079 L55.2927512,0.232665079 Z" id="Fill-6" fill="#FEFEFE" mask="url(#mask-4)"></path>
                    <polygon id="Fill-7" fill="#FEFEFE" mask="url(#mask-4)" points="46.9069403 9.6912873 46.9069403 8.18277937 41.4355611 8.18277937 41.4355611 5.70681111 46.3267033 5.70681111 46.3267033 4.19866825 41.4355611 4.19866825 41.4355611 1.7227 46.6558692 1.7227 46.6558692 0.232811111 38.4964237 0.232811111 38.4964237 9.6912873"></polygon>
                    <polygon id="Fill-8" fill="#FEFEFE" mask="url(#mask-4)" points="15.5650938 0.232738095 19.3738569 6.36424603 19.3738569 0.232738095 21.6360512 0.232738095 21.6360512 9.69121429 18.1371128 9.69121429 14.2305488 3.38629365 14.2305488 9.69121429 11.9683545 9.69121429 11.9683545 0.232738095"></polygon>
                    <path d="M52.2244289,13.5139238 C48.7101635,13.5139238 48.7101635,15.6229873 48.7101635,16.5327651 L48.7101635,19.9630508 C48.7101635,20.8710032 48.7101635,22.999781 52.2244289,22.999781 L58.6238223,22.999781 L58.6238223,17.3122095 L53.7713626,17.3122095 L53.7713626,18.8218127 L55.7040261,18.8218127 L55.7040261,21.4916381 L52.5722062,21.4916381 C51.7606043,21.4916381 51.6449218,20.8334 51.6449218,20.1558127 L51.6449218,16.3374476 C51.6449218,15.6616857 51.7606043,15.0034476 52.5722062,15.0034476 L58.6238223,15.0034476 L58.6238223,13.5139238 L52.2244289,13.5139238 Z" id="Fill-9" fill="#FEFEFE" mask="url(#mask-4)"></path>
                    <path d="M80.642173,13.5139238 C77.1279076,13.5139238 77.1279076,15.6229873 77.1279076,16.5327651 L77.1279076,19.9630508 C77.1279076,20.8710032 77.1279076,22.999781 80.642173,22.999781 L87.0408365,22.999781 L87.0408365,17.3122095 L82.1891066,17.3122095 L82.1891066,18.8218127 L84.1214052,18.8218127 L84.1214052,21.4916381 L80.9892204,21.4916381 C80.1783483,21.4916381 80.061936,20.8334 80.061936,20.1558127 L80.061936,16.3374476 C80.061936,15.6616857 80.1783483,15.0034476 80.9892204,15.0034476 L87.0408365,15.0034476 L87.0408365,13.5139238 L80.642173,13.5139238 Z" id="Fill-10" fill="#FEFEFE" mask="url(#mask-4)"></path>
                    <polygon id="Fill-11" fill="#FEFEFE" mask="url(#mask-4)" points="40.7448602 13.521773 37.1488507 22.9999635 39.3719976 22.9999635 42.0213815 15.9586778 44.7474005 22.9999635 48.2656801 22.9999635 44.6693057 13.521773"></polygon>
                    <polygon id="Fill-12" fill="#FEFEFE" mask="url(#mask-4)" points="23.6138564 13.521773 27.1507474 13.521773 29.7625436 19.5561698 32.6049749 13.521773 36.084937 13.521773 36.084937 22.9999635 33.2231645 22.9999635 33.2231645 16.6946778 30.2650507 22.9999635 28.2739986 22.9999635 25.566591 16.6753286 25.566591 22.9999635 23.6138564 22.9999635"></polygon>
                    <polygon id="Fill-13" fill="#FEFEFE" mask="url(#mask-4)" points="69.2987592 13.521773 73.1235791 19.6729952 73.1235791 13.521773 75.388328 13.521773 75.388328 22.9999635 71.8872 22.9999635 67.9627545 16.6753286 67.9627545 22.9999635 65.7195365 22.9999635 65.7195365 13.521773"></polygon>
                    <polygon id="Fill-14" fill="#FEFEFE" mask="url(#mask-4)" points="18.818654 23 21.6610853 23 21.6610853 13.5218095 18.818654 13.5218095"></polygon>
                    <polygon id="Fill-15" fill="#FEFEFE" mask="url(#mask-4)" points="60.6927867 23 63.5162417 23 63.5162417 13.5218095 60.6927867 13.5218095"></polygon>
                    <polygon id="Fill-16" fill="#FEFEFE" mask="url(#mask-4)" points="73.8553711 4.89429048 71.5344232 4.89429048 71.5344232 2.37962381 73.7962526 2.37962381 73.7962526 1.54760794 73.332063 1.54760794 73.7002763 0.232592063 72.0763427 0.232592063 71.7271057 1.54760794 69.9115844 1.54760794 69.5444659 0.232592063 68.0358498 0.232592063 68.3839919 1.54760794 67.7836839 1.54760794 67.7836839 2.37962381 70.0279967 2.37962381 70.0279967 4.89429048 67.7256602 4.89429048 67.7256602 5.74565556 69.4846175 5.74565556 67.6680014 9.69143333 69.2926649 9.69143333 70.7209967 6.6543381 72.172319 9.69143333 73.7962526 9.69143333 72.018319 5.74565556 73.8553711 5.74565556"></polygon>
                    <path d="M64.187346,2.94071429 L65.7350095,2.94071429 L65.7350095,1.06420635 L64.187346,1.06420635 L64.187346,2.94071429 Z M64.187346,5.45611111 L65.7350095,5.45611111 L65.7350095,3.67634921 L64.187346,3.67634921 L64.187346,5.45611111 Z M65.7350095,8.02773016 L64.187346,8.22122222 L64.187346,6.19101587 L65.7350095,6.19101587 L65.7350095,8.02773016 Z M62.3320474,0.232555556 L62.3320474,1.06457143 L62.7174123,1.06457143 L62.7174123,8.41471429 L62.3696351,8.4534127 L62.3696351,9.3237619 L65.7350095,8.89771429 L65.7350095,9.69139683 L67.2023886,9.69139683 L67.2023886,1.06457143 L67.5315545,1.06457143 L67.5315545,0.232555556 L62.3320474,0.232555556 Z" id="Fill-17" fill="#FEFEFE" mask="url(#mask-4)"></path>
                    <polygon id="Fill-18" fill="#FEFEFE" mask="url(#mask-4)" points="75.5759379 9.6912873 77.1805303 9.6912873 77.7027436 8.06704921 76.0777152 8.06704921"></polygon>
                    <polygon id="Fill-19" fill="#FEFEFE" mask="url(#mask-4)" points="80.8941564 8.06697619 81.4346161 9.69121429 83.0001611 9.69121429 82.5173602 8.06697619"></polygon>
                    <polygon id="Fill-20" fill="#FEFEFE" mask="url(#mask-4)" points="83.5801427 1.54903175 83.5801427 3.174 87.0407635 1.85752381 87.0407635 0.232920635"></polygon>
                    <polygon id="Fill-21" fill="#FEFEFE" mask="url(#mask-4)" points="83.5801427 6.45690317 87.0407635 5.14115714 87.0407635 3.47749048 83.5801427 4.81258571"></polygon>
                    <path d="M77.4503223,2.86295238 L81.1620142,2.86295238 L81.1620142,2.22552381 L77.4503223,2.22552381 L77.4503223,2.86295238 Z M77.4320758,1.54793651 L81.1623791,1.54793651 L81.1623791,0.929492063 L77.4320758,0.929492063 L77.4320758,1.54793651 Z M80.0613886,3.52119048 L82.8833839,3.52119048 L82.8841137,0.232555556 L75.7099763,0.232555556 L75.7099763,3.52119048 L78.5137251,3.52119048 L78.5137251,4.17869841 L75.5760474,4.17869841 L75.5760474,4.97165079 L83.0001611,4.97165079 L83.0001611,4.17869841 L80.0613886,4.17869841 L80.0613886,3.52119048 Z" id="Fill-22" fill="#FEFEFE" mask="url(#mask-4)"></path>
                    <polygon id="Fill-23" fill="#FEFEFE" mask="url(#mask-4)" points="83.5801427 9.6912873 87.0407635 8.39525556 87.0407635 6.77101746 83.5801427 8.10538254"></polygon>
                    <path d="M75.7099398,5.4753873 L75.7099398,7.71916508 L78.5151483,7.71916508 L78.5151483,9.69132381 L80.056973,9.69132381 L80.056973,7.71916508 L82.8833474,7.71916508 L82.8833474,5.4753873 L75.7099398,5.4753873 Z M77.4502858,6.96491111 L81.1619777,6.96491111 L81.1619777,6.19094286 L77.4502858,6.19094286 L77.4502858,6.96491111 Z" id="Fill-24" fill="#FEFEFE" mask="url(#mask-4)"></path>
                    <polygon id="Fill-25" fill="#FEFEFE" mask="url(#mask-4)" points="101.273611 23 102.003469 23 102.003469 0.232920635 101.273611 0.232920635"></polygon>
                    <polygon id="Fill-26" fill="#FEFEFE" mask="url(#mask-4)" points="116.235697 23 136.717697 23 136.717697 16.1700952 116.235697 16.1700952"></polygon>
                    <polygon id="Fill-27" fill="#FEFEFE" mask="url(#mask-4)" points="116.235697 23 123.063152 23 123.063152 9.3398254 116.235697 9.3398254"></polygon>
                    <polygon id="Fill-28" fill="#FEFEFE" mask="url(#mask-4)" points="116.235697 7.0628254 136.717697 7.0628254 136.717697 0.232555556 116.235697 0.232555556"></polygon>
                    <polygon id="Fill-29" fill="#FEFEFE" mask="url(#mask-4)" points="129.890242 13.8930952 136.717697 13.8930952 136.717697 0.232555556 129.890242 0.232555556"></polygon>
                    <path d="M149.15046,8.21242381 C148.626787,7.67502698 148.365498,6.82950317 148.365498,5.67658254 L148.365498,1.84580476 L147.665564,1.70780476 L147.665564,1.04993175 L150.868545,1.04993175 L150.868545,1.70780476 L149.967171,1.85639206 L149.967171,5.81458254 C149.967171,7.49832857 150.564559,8.33983651 151.759336,8.33983651 C152.346507,8.33983651 152.781137,8.12224921 153.064322,7.68743968 C153.347142,7.25226508 153.488735,6.64185238 153.488735,5.85693175 L153.488735,1.85639206 L152.576412,1.70780476 L152.576412,1.04993175 L155.227986,1.04993175 L155.227986,1.70780476 L154.506886,1.84580476 L154.506886,5.77186825 C154.506886,6.87550317 154.239758,7.69255079 153.705867,8.22301111 C153.172341,8.75347143 152.452701,9.01888413 151.547313,9.01888413 C150.472597,9.01888413 149.673768,8.75018571 149.15046,8.21242381" id="Fill-30" fill="#FEFEFE" mask="url(#mask-4)"></path>
                    <path d="M156.416267,4.04219524 L155.7375,3.85125873 L155.7375,3.1192746 L157.497917,2.89621111 L157.53003,2.89621111 L157.794969,3.10832222 L157.794969,3.52232222 L157.784386,3.77678254 C158.031808,3.54349683 158.353675,3.34197302 158.749988,3.17221111 C159.145571,3.00244921 159.545168,2.91738571 159.948414,2.91738571 C160.379395,2.91738571 160.716955,2.9973381 160.961092,3.15614762 C161.205229,3.3156873 161.380395,3.56467143 161.48659,3.90419524 C161.592419,4.24408413 161.645334,4.70371905 161.645334,5.28383016 L161.645334,8.21249683 L162.292353,8.29719524 L162.292353,8.93389365 L159.555751,8.93389365 L159.555751,8.29719524 L160.128689,8.21249683 L160.128689,5.28383016 C160.128689,4.91619524 160.103509,4.62778254 160.054244,4.41895714 C160.004613,4.21049683 159.914476,4.05825873 159.783831,3.96260794 C159.652822,3.86732222 159.467073,3.81949683 159.22695,3.81949683 C158.824068,3.81949683 158.392357,3.99290952 157.932912,4.33936984 L157.932912,8.2022746 L158.568983,8.29719524 L158.568983,8.93389365 L155.800632,8.93389365 L155.800632,8.29719524 L156.416267,8.2022746 L156.416267,4.04219524 Z" id="Fill-31" fill="#FEFEFE" mask="url(#mask-4)"></path>
                    <path d="M163.703095,1.84565873 C163.554569,1.69743651 163.480488,1.50613492 163.480488,1.27284921 C163.480488,1.00378571 163.564787,0.781087302 163.734844,0.604388889 C163.904536,0.427325397 164.130791,0.33897619 164.413611,0.33897619 C164.696431,0.33897619 164.912104,0.414912698 165.06063,0.567150794 C165.209156,0.719388889 165.283237,0.9085 165.283237,1.13484921 C165.283237,1.41778571 165.198573,1.64413492 165.028882,1.81389683 C164.85919,1.98365873 164.622351,2.06835714 164.318365,2.06835714 L164.307417,2.06835714 C164.053062,2.06835714 163.851256,1.99424603 163.703095,1.84565873 L163.703095,1.84565873 Z M163.745427,4.04234127 L162.992213,3.84081746 L162.992213,3.13000794 L164.93327,2.89635714 L164.954801,2.89635714 L165.251488,3.10846825 L165.251488,8.21227778 L165.962005,8.29734127 L165.962005,8.93403968 L163.002796,8.93403968 L163.002796,8.29734127 L163.745427,8.20205556 L163.745427,4.04234127 Z" id="Fill-32" fill="#FEFEFE" mask="url(#mask-4)"></path>
                    <path d="M167.521273,8.72189206 C167.309249,8.51671746 167.203055,8.19143175 167.203055,7.74566984 L167.203055,3.85100317 L166.513704,3.85100317 L166.513704,3.29936825 C166.570268,3.27819365 166.672813,3.24095556 166.821339,3.18801905 C166.969865,3.13508254 167.082993,3.09090794 167.160723,3.05549524 C167.280785,2.96386032 167.38333,2.80432063 167.467993,2.57797143 C167.531856,2.42938413 167.648633,2.06174921 167.818325,1.47433651 L168.66715,1.47433651 L168.709482,3.03432063 L170.331955,3.03432063 L170.331955,3.85100317 L168.7197,3.85100317 L168.7197,6.83297143 C168.7197,7.22908254 168.730282,7.50873333 168.751813,7.67119365 C168.772979,7.83401905 168.81896,7.93843175 168.889391,7.98406667 C168.960188,8.03043175 169.083899,8.05343175 169.260889,8.05343175 C169.437515,8.05343175 169.621439,8.03371746 169.812297,7.99501905 C170.003519,7.95632063 170.162264,7.90813016 170.289624,7.85154286 L170.491429,8.44589206 C170.293273,8.59447937 170.003519,8.72919365 169.621439,8.84930476 C169.239723,8.96941587 168.868226,9.02965397 168.507676,9.02965397 C168.062098,9.02965397 167.733297,8.92706667 167.521273,8.72189206" id="Fill-33" fill="#FEFEFE" mask="url(#mask-4)"></path>
                    <path d="M174.553672,5.43227143 C174.567539,5.23439841 174.574838,5.08216032 174.574838,4.97592222 C174.574838,4.03547778 174.259904,3.56489048 173.630767,3.56489048 C173.284084,3.56489048 173.015497,3.70289048 172.824639,3.97889048 C172.633416,4.2545254 172.527587,4.73935079 172.506421,5.43227143 L174.553672,5.43227143 Z M171.641904,8.22841429 C171.185743,7.68043016 170.957663,6.93201746 170.957663,5.98427143 C170.957663,5.34757302 171.076264,4.79557302 171.313103,4.32900159 C171.549942,3.8617 171.884217,3.50501746 172.315563,3.25712857 C172.746909,3.00960476 173.245402,2.88547778 173.811042,2.88547778 C174.517909,2.88547778 175.062748,3.07130317 175.444464,3.44295397 C175.826179,3.8138746 176.024336,4.34323968 176.038568,5.02922381 C176.038568,5.49616032 176.010103,5.84262063 175.953539,6.06896984 L172.506421,6.06896984 C172.53452,6.71296984 172.686696,7.21349365 172.962582,7.57054127 C173.238468,7.92795397 173.630767,8.10647778 174.139843,8.10647778 C174.415729,8.10647778 174.700009,8.06047778 174.993776,7.96847778 C175.287179,7.87647778 175.518909,7.76695397 175.688236,7.63954127 L175.953539,8.22330317 C175.762682,8.42847778 175.453222,8.61758889 175.025525,8.79100159 C174.597464,8.96441429 174.164658,9.0509381 173.726013,9.0509381 C172.79289,9.0509381 172.098065,8.77676349 171.641904,8.22841429 L171.641904,8.22841429 Z" id="Fill-34" fill="#FEFEFE" mask="url(#mask-4)"></path>
                    <path d="M180.275976,8.02667143 C180.456251,7.93138571 180.599303,7.81638571 180.705498,7.68203651 L180.705498,3.81949683 C180.655867,3.74867143 180.551498,3.68843333 180.392389,3.63878254 C180.23328,3.5898619 180.061763,3.56467143 179.878204,3.56467143 C179.425327,3.56467143 179.063318,3.76108413 178.791081,4.15390952 C178.518844,4.54636984 178.382725,5.17430635 178.382725,6.03735397 C178.382725,6.75875079 178.499137,7.2946873 178.732692,7.64479841 C178.965882,7.99490952 179.273517,8.17014762 179.655232,8.17014762 C179.888422,8.17014762 180.095701,8.12232222 180.275976,8.02667143 M177.926929,8.73784603 C177.579882,8.52938571 177.303995,8.20556032 177.09927,7.76673492 C176.893815,7.3282746 176.791635,6.7799254 176.791635,6.12205238 C176.791635,5.52770317 176.913521,4.98519524 177.157659,4.49306825 C177.401431,4.00167143 177.760156,3.61067143 178.234199,3.32043333 C178.707877,3.03056032 179.277166,2.88562381 179.942066,2.88562381 C180.210289,2.88562381 180.465009,2.9141 180.705498,2.97032222 L180.705498,1.17705238 L179.665815,1.02883016 L179.665815,0.445068254 L181.850645,0.232592063 L181.882758,0.232592063 L182.17981,0.455655556 L182.17981,8.28697302 L182.752749,8.28697302 L182.752749,8.89154444 C182.243673,8.99778254 181.822545,9.05108413 181.49046,9.05108413 C181.263839,9.05108413 181.10327,9.01348095 181.008024,8.93936984 C180.912412,8.86525873 180.864607,8.71849683 180.864607,8.49908413 L180.864607,8.20190952 C180.680682,8.44943333 180.429611,8.65278254 180.111758,8.81195714 C179.79354,8.97113175 179.457441,9.05108413 179.103825,9.05108413 C178.66518,9.05108413 178.272882,8.94630635 177.926929,8.73784603" id="Fill-35" fill="#FEFEFE" mask="url(#mask-4)"></path>
                    <polygon id="Fill-36" fill="#FEFEFE" mask="url(#mask-4)" points="186.952679 1.84565873 186.051305 1.70765873 186.051305 1.04978571 189.445144 1.04978571 189.445144 1.70765873 188.511655 1.84565873 188.511655 8.19146825 189.445144 8.30792857 189.445144 8.93403968 186.051305 8.93403968 186.051305 8.29734127 186.952679 8.19146825"></polygon>
                    <path d="M190.399907,8.29726825 L190.994011,8.20198254 L190.994011,4.04226825 L190.315244,3.85096667 L190.315244,3.11898254 L192.076026,2.89628413 L192.203021,2.98098254 L192.362495,3.33109365 L192.362495,3.77685556 C192.595684,3.55087143 192.929959,3.35080794 193.36459,3.17776032 C193.799585,3.00434762 194.176191,2.91745873 194.494409,2.91745873 C194.876125,2.91745873 195.18522,2.98098254 195.422424,3.10839524 C195.659263,3.23580794 195.837348,3.43404603 195.958139,3.70274444 C196.191329,3.49063333 196.498964,3.30663333 196.881045,3.15074444 C197.26276,2.99558571 197.637177,2.91745873 198.005026,2.91745873 C198.634163,2.91745873 199.080106,3.10182381 199.341395,3.46909365 C199.603049,3.83709365 199.734059,4.43874444 199.734059,5.27331587 L199.734059,8.20198254 L200.423409,8.29726825 L200.423409,8.93396667 L197.676225,8.93396667 L197.676225,8.29726825 L198.227997,8.20198254 L198.227997,5.31566508 C198.227997,4.76366508 198.16231,4.37668095 198.031665,4.15361746 C197.900656,3.93091905 197.651409,3.81920476 197.283926,3.81920476 C197.08577,3.81920476 196.882869,3.86374444 196.673765,3.95209365 C196.465391,4.04080794 196.279642,4.14850635 196.117248,4.27555397 C196.166514,4.54461746 196.191329,4.88085556 196.191329,5.28390317 L196.191329,8.20198254 L196.848931,8.29726825 L196.848931,8.93396667 L194.08058,8.93396667 L194.08058,8.29726825 L194.664101,8.20198254 L194.664101,5.28390317 C194.664101,4.91590317 194.640746,4.62749048 194.59513,4.41903016 C194.548784,4.21056984 194.462661,4.05833175 194.334936,3.96268095 C194.20794,3.86703016 194.024016,3.81920476 193.783163,3.81920476 C193.557272,3.81920476 193.332841,3.87068095 193.110234,3.97326825 C192.886898,4.07585556 192.687646,4.19779206 192.510656,4.33944286 L192.510656,8.20198254 L193.136509,8.29726825 L193.136509,8.93396667 L190.399907,8.93396667 L190.399907,8.29726825 Z" id="Fill-37" fill="#FEFEFE" mask="url(#mask-4)"></path>
                    <path d="M204.008471,8.03736825 C204.199329,7.94901905 204.365736,7.84132063 204.506964,7.71354286 L204.506964,5.9735746 C203.870528,5.9735746 203.395026,6.0816381 203.080457,6.29703492 C202.765888,6.51279683 202.608239,6.79062222 202.608239,7.13014603 C202.608239,7.46966984 202.688158,7.72778095 202.847267,7.90484444 C203.006376,8.08190794 203.223874,8.16989206 203.499395,8.16989206 C203.648286,8.16989206 203.817978,8.12571746 204.008471,8.03736825 M201.998443,5.8249873 C202.645827,5.49970159 203.481879,5.33359048 204.506964,5.32592381 L204.506964,5.08205079 C204.506964,4.79217778 204.47704,4.56582857 204.416827,4.40300317 C204.356613,4.24054286 204.247135,4.11860635 204.088391,4.03719365 C203.928917,3.95578095 203.697187,3.91489206 203.393201,3.91489206 C203.046883,3.91489206 202.735599,3.95906667 202.460078,4.04741587 C202.184191,4.13576508 201.897722,4.25113016 201.60067,4.39241587 L201.271869,3.71336825 C201.378064,3.62136825 201.556514,3.51184444 201.80795,3.38443175 C202.058656,3.25701905 202.357533,3.14566984 202.704215,3.05038413 C203.050533,2.95436825 203.407798,2.90654286 203.774917,2.90654286 C204.319755,2.90654286 204.745992,2.97773333 205.053263,3.11901905 C205.360898,3.26066984 205.582045,3.48701905 205.716338,3.79843175 C205.850632,4.10947937 205.917779,4.52713016 205.917779,5.05028889 L205.917779,8.29730476 L206.490718,8.29730476 L206.490718,8.89165397 C206.34876,8.92743175 206.147319,8.96211429 205.88603,8.99789206 C205.624376,9.03330476 205.394471,9.05082857 205.19668,9.05082857 C204.956191,9.05082857 204.795258,9.01541587 204.714244,8.94459048 C204.6325,8.87413016 204.592357,8.72919365 204.592357,8.50978095 L204.592357,8.22319365 C204.40077,8.43530476 204.153348,8.62624127 203.849362,8.79600317 C203.545011,8.96576508 203.202343,9.05082857 202.820627,9.05082857 C202.495476,9.05082857 202.196234,8.98182857 201.924362,8.84382857 C201.652125,8.70582857 201.434263,8.50430476 201.271869,8.23925714 C201.109476,7.97384444 201.028097,7.65366984 201.028097,7.27873333 C201.028097,6.63509841 201.351789,6.15027302 201.998443,5.8249873" id="Fill-38" fill="#FEFEFE" mask="url(#mask-4)"></path>
                    <path d="M210.775676,4.85931587 C210.775676,4.39968095 210.692473,4.06161746 210.52643,3.84622063 C210.360022,3.63045873 210.107491,3.52239524 209.768108,3.52239524 C209.435657,3.52239524 209.179477,3.63045873 208.999202,3.84622063 C208.818927,4.06161746 208.72879,4.38544286 208.72879,4.81696667 C208.72879,5.74390317 209.082041,6.20682381 209.789273,6.20682381 C210.44724,6.20682381 210.775676,5.75777619 210.775676,4.85931587 M211.030032,10.7433 C211.355548,10.527173 211.518307,10.2285381 211.518307,9.84666508 C211.518307,9.54255397 211.438387,9.32314127 211.279643,9.18842698 C211.120169,9.05407778 210.83589,8.98726825 210.425709,8.98726825 L209.269615,8.98726825 C209.092989,8.98726825 208.929866,8.97631587 208.781705,8.95550635 C208.590847,9.20996667 208.495236,9.51407778 208.495236,9.86783968 C208.495236,10.2566492 208.60143,10.5541889 208.813454,10.7589984 C209.025477,10.9645381 209.379093,11.0667603 209.873937,11.0667603 C210.319515,11.0667603 210.70488,10.9590619 211.030032,10.7433 M207.657359,11.3533476 C207.232946,11.0565381 207.020923,10.6531254 207.020923,10.1438397 C207.020923,9.85360159 207.118359,9.57979206 207.312501,9.32168095 C207.507008,9.06320476 207.742022,8.87044286 208.017909,8.74303016 C207.692757,8.55209365 207.529999,8.24798254 207.529999,7.83069683 C207.529999,7.59010952 207.607728,7.36193492 207.763188,7.14617302 C207.918648,6.93041111 208.120454,6.7624746 208.367875,6.64199841 C207.978861,6.49377619 207.689108,6.2670619 207.49825,5.96258571 C207.307392,5.6584746 207.211781,5.29814127 207.211781,4.88085556 C207.211781,4.47744286 207.330382,4.12550635 207.567221,3.82468095 C207.803695,3.52422063 208.122278,3.29239524 208.521875,3.12993492 C208.921108,2.96710952 209.354278,2.88569683 209.821387,2.88569683 C210.648316,2.88569683 211.263586,3.04487143 211.666468,3.36322063 C211.75843,3.24274444 211.914255,3.12993492 212.133577,3.02369683 C212.352169,2.91745873 212.57879,2.86452222 212.812345,2.86452222 L213.183477,2.86452222 L213.183477,4.02109365 L212.09088,4.02109365 C212.197074,4.24744286 212.249989,4.48766508 212.249989,4.74285556 C212.257288,5.38649048 212.030667,5.90125238 211.571221,6.28641111 C211.111411,6.6723 210.481909,6.86469683 209.683079,6.86469683 C209.350994,6.86469683 209.071458,6.84023651 208.845202,6.79058571 C208.774771,6.88258571 208.719667,6.9800619 208.680984,7.08228413 C208.641572,7.18523651 208.622596,7.27504603 208.622596,7.35317302 C208.622596,7.58645873 208.7058,7.74563333 208.871842,7.83069683 C209.03752,7.91539524 209.336762,7.95774444 209.768108,7.95774444 L210.903401,7.95774444 C212.3456,7.95774444 213.0667,8.48163333 213.0667,9.52831587 C213.0667,9.96677619 212.91124,10.3592365 212.600321,10.706427 C212.288672,11.0525222 211.875572,11.3215857 211.359198,11.5128873 C210.843188,11.7034587 210.295065,11.7991095 209.715193,11.7991095 C208.767108,11.7991095 208.081406,11.6505222 207.657359,11.3533476" id="Fill-39" fill="#FEFEFE" mask="url(#mask-4)"></path>
                    <path d="M214.403252,1.84565873 C214.254726,1.69743651 214.180645,1.50613492 214.180645,1.27284921 C214.180645,1.00378571 214.265309,0.781087302 214.435001,0.604388889 C214.605058,0.427325397 214.830949,0.33897619 215.113769,0.33897619 C215.396589,0.33897619 215.612262,0.414912698 215.761153,0.567150794 C215.909314,0.719388889 215.983759,0.9085 215.983759,1.13484921 C215.983759,1.41778571 215.898731,1.64413492 215.729039,1.81389683 C215.559347,1.98365873 215.322508,2.06835714 215.018887,2.06835714 L215.007939,2.06835714 C214.753219,2.06835714 214.551778,1.99424603 214.403252,1.84565873 L214.403252,1.84565873 Z M214.445584,4.04234127 L213.692736,3.84081746 L213.692736,3.13000794 L215.633792,2.89635714 L215.654958,2.89635714 L215.95201,3.10846825 L215.95201,8.21227778 L216.662162,8.29734127 L216.662162,8.93403968 L213.702954,8.93403968 L213.702954,8.29734127 L214.445584,8.20205556 L214.445584,4.04234127 Z" id="Fill-40" fill="#FEFEFE" mask="url(#mask-4)"></path>
                    <path d="M218.019734,4.04219524 L217.341331,3.85125873 L217.341331,3.1192746 L219.101748,2.89621111 L219.133862,2.89621111 L219.3988,3.10832222 L219.3988,3.52232222 L219.388218,3.77678254 C219.636004,3.54349683 219.957507,3.34197302 220.353455,3.17221111 C220.749037,3.00244921 221.149,2.91738571 221.552246,2.91738571 C221.983227,2.91738571 222.321151,2.9973381 222.564924,3.15614762 C222.808696,3.3156873 222.984227,3.56467143 223.090056,3.90419524 C223.196251,4.24408413 223.249165,4.70371905 223.249165,5.28383016 L223.249165,8.21249683 L223.896184,8.29719524 L223.896184,8.93389365 L221.159582,8.93389365 L221.159582,8.29719524 L221.732521,8.21249683 L221.732521,5.28383016 C221.732521,4.91619524 221.707341,4.62778254 221.65844,4.41895714 C221.608445,4.21049683 221.518308,4.05825873 221.387663,3.96260794 C221.256654,3.86732222 221.070905,3.81949683 220.830782,3.81949683 C220.4279,3.81949683 219.996189,3.99290952 219.536744,4.33936984 L219.536744,8.2022746 L220.17318,8.29719524 L220.17318,8.93389365 L217.404464,8.93389365 L217.404464,8.29719524 L218.019734,8.2022746 L218.019734,4.04219524 Z" id="Fill-41" fill="#FEFEFE" mask="url(#mask-4)"></path>
                    <path d="M228.276609,4.85931587 C228.276609,4.39968095 228.193405,4.06161746 228.027362,3.84622063 C227.860955,3.63045873 227.608424,3.52239524 227.26904,3.52239524 C226.93659,3.52239524 226.680409,3.63045873 226.500135,3.84622063 C226.31986,4.06161746 226.229722,4.38544286 226.229722,4.81696667 C226.229722,5.74390317 226.582973,6.20682381 227.290206,6.20682381 C227.948173,6.20682381 228.276609,5.75777619 228.276609,4.85931587 M228.531329,10.7433 C228.856481,10.527173 229.019239,10.2285381 229.019239,9.84666508 C229.019239,9.54255397 228.939319,9.32314127 228.780575,9.18842698 C228.621101,9.05407778 228.336822,8.98726825 227.926642,8.98726825 L226.770547,8.98726825 C226.593921,8.98726825 226.430798,8.97631587 226.282637,8.95550635 C226.091779,9.20996667 225.996533,9.51407778 225.996533,9.86783968 C225.996533,10.2566492 226.102362,10.5541889 226.314386,10.7589984 C226.526774,10.9645381 226.880026,11.0667603 227.374869,11.0667603 C227.820447,11.0667603 228.205812,10.9590619 228.531329,10.7433 M225.158291,11.3533476 C224.734244,11.0565381 224.52222,10.6531254 224.52222,10.1438397 C224.52222,9.85360159 224.619291,9.57979206 224.813433,9.32168095 C225.00794,9.06320476 225.242955,8.87044286 225.518841,8.74303016 C225.193689,8.55209365 225.030931,8.24798254 225.030931,7.83069683 C225.030931,7.59010952 225.108661,7.36193492 225.264485,7.14617302 C225.419945,6.93041111 225.621751,6.7624746 225.868808,6.64199841 C225.479793,6.49377619 225.19004,6.2670619 224.999182,5.96258571 C224.808324,5.6584746 224.712713,5.29814127 224.712713,4.88085556 C224.712713,4.47744286 224.831315,4.12550635 225.068154,3.82468095 C225.304627,3.52422063 225.62321,3.29239524 226.022808,3.12993492 C226.42204,2.96710952 226.85521,2.88569683 227.322319,2.88569683 C228.149248,2.88569683 228.764518,3.04487143 229.1674,3.36322063 C229.259362,3.24274444 229.415187,3.12993492 229.634509,3.02369683 C229.853101,2.91745873 230.079722,2.86452222 230.313277,2.86452222 L230.684409,2.86452222 L230.684409,4.02109365 L229.591812,4.02109365 C229.698007,4.24744286 229.750921,4.48766508 229.750921,4.74285556 C229.75822,5.38649048 229.531599,5.90125238 229.072154,6.28641111 C228.612343,6.6723 227.982841,6.86469683 227.184011,6.86469683 C226.851926,6.86469683 226.572391,6.84023651 226.346135,6.79058571 C226.275703,6.88258571 226.220599,6.9800619 226.181917,7.08228413 C226.142504,7.18523651 226.123528,7.27504603 226.123528,7.35317302 C226.123528,7.58645873 226.206732,7.74563333 226.372774,7.83069683 C226.538452,7.91539524 226.837694,7.95774444 227.26904,7.95774444 L228.404334,7.95774444 C229.846533,7.95774444 230.567632,8.48163333 230.567632,9.52831587 C230.567632,9.96677619 230.412173,10.3592365 230.101253,10.706427 C229.789604,11.0525222 229.376504,11.3215857 228.86013,11.5128873 C228.34412,11.7034587 227.795997,11.7991095 227.216125,11.7991095 C226.268405,11.7991095 225.582703,11.6505222 225.158291,11.3533476" id="Fill-42" fill="#FEFEFE" mask="url(#mask-4)"></path>
                    <path d="M149.585236,20.1559587 C149.28125,20.0924349 148.941501,20.0077365 148.567084,19.9014984 C148.319298,19.830673 148.153255,19.7919746 148.068591,19.784673 L148.163838,17.8212762 L149.023245,17.8212762 L149.256435,19.1903238 C149.348397,19.2896254 149.512615,19.3779746 149.749454,19.4557365 C149.986658,19.5338635 150.25707,19.5721968 150.561056,19.5721968 C151.034734,19.5721968 151.389809,19.4681492 151.627013,19.2593238 C151.863852,19.0508635 151.982089,18.7591651 151.982089,18.3838635 C151.982089,18.1367048 151.911658,17.9224032 151.770065,17.742054 C151.628838,17.5617048 151.433966,17.3988794 151.186909,17.2539429 C150.939122,17.1090063 150.599738,16.9407048 150.168757,16.7501333 C149.581587,16.4810698 149.095501,16.1612603 148.710136,15.7896095 C148.324772,15.4179587 148.132089,14.9141492 148.132089,14.2774508 C148.132089,13.8813397 148.234634,13.5224667 148.439724,13.2004667 C148.644814,12.8784667 148.950625,12.6240063 149.357155,12.4363556 C149.763686,12.2490698 150.260719,12.1552444 150.847525,12.1552444 C151.193843,12.1552444 151.499653,12.1800698 151.764956,12.2293556 C152.029895,12.2790063 152.318189,12.346181 152.629473,12.4312444 C152.813397,12.4808952 152.95134,12.5122921 153.043302,12.5268952 L152.97944,14.3833238 L152.13098,14.3833238 L151.908009,13.0781651 C151.844511,13.0146413 151.717151,12.9529429 151.526293,12.8927048 C151.335435,12.8324667 151.123411,12.8025302 150.889857,12.8025302 C150.465445,12.8025302 150.145402,12.8996413 149.929729,13.0942286 C149.714421,13.2888159 149.606402,13.5487524 149.606402,13.8740381 C149.606402,14.1361651 149.685956,14.3625143 149.845065,14.5530857 C150.004174,14.7443873 150.196857,14.9053873 150.423113,15.0364508 C150.649369,15.1671492 151.006634,15.3529746 151.494179,15.5931968 C151.890127,15.7841333 152.229876,15.9717841 152.512696,16.1557841 C152.795516,16.3397841 153.039653,16.578546 153.244378,16.8720698 C153.449833,17.1655937 153.552013,17.5105937 153.552013,17.9067048 C153.552013,18.2955143 153.454942,18.6671651 153.260435,19.020927 C153.065928,19.3743238 152.74771,19.6678476 152.305781,19.9014984 C151.863852,20.1347841 151.299672,20.2516095 150.613971,20.2516095 C150.232255,20.2516095 149.889222,20.2198476 149.585236,20.1559587" id="Fill-43" fill="#FEFEFE" mask="url(#mask-4)"></path>
                    <path d="M158.611534,20.0924714 C158.505704,19.9935349 158.452425,19.8449476 158.452425,19.6467095 L158.452425,19.3601222 C158.261567,19.593773 157.992979,19.800773 157.646297,19.9807571 C157.299979,20.1611063 156.953297,20.251646 156.606979,20.251646 C155.927846,20.251646 155.443586,20.0764079 155.153832,19.7262968 C154.863714,19.3761857 154.718837,18.7979 154.718837,17.9914397 L154.718837,14.9992492 L154.188595,14.8506619 L154.188595,14.2453603 L155.991709,14.1073603 L156.002657,14.1073603 L156.214681,14.2563127 L156.214681,17.9914397 C156.214681,18.5076619 156.278178,18.8683603 156.405538,19.0739 C156.532899,19.2787095 156.769737,19.3816619 157.116055,19.3816619 C157.533169,19.3816619 157.922183,19.2184714 158.283098,18.8935508 L158.283098,14.9992492 L157.572216,14.8397095 L157.572216,14.2453603 L159.492107,14.1073603 L159.513273,14.1073603 L159.767628,14.2563127 L159.767628,19.4769476 L160.361733,19.4769476 L160.351515,20.0818841 C160.322685,20.0888206 160.192041,20.1172968 159.958851,20.1665825 C159.725662,20.2162333 159.445761,20.2406937 159.120974,20.2406937 C158.88742,20.2406937 158.717728,20.1914079 158.611534,20.0924714" id="Fill-44" fill="#FEFEFE" mask="url(#mask-4)"></path>
                    <path d="M161.114727,19.5088556 L161.815026,19.4241571 L161.815026,15.2429032 L161.136258,15.0519667 L161.136258,14.3199825 L162.779898,14.0972841 L162.811646,14.0972841 L163.07695,14.3093952 L163.07695,14.542681 L163.045201,15.4020778 L163.07695,15.4020778 C163.12658,15.2607921 163.242992,15.085919 163.426917,14.8767286 C163.610841,14.6682683 163.842571,14.4842683 164.121741,14.3254587 C164.401277,14.165919 164.703438,14.0863317 165.028955,14.0863317 C165.184049,14.0863317 165.318708,14.1075063 165.431836,14.1498556 L165.431836,15.7419667 C165.219447,15.5930143 164.961443,15.5189032 164.657457,15.5189032 C164.141082,15.5189032 163.69222,15.6569032 163.310504,15.9329032 L163.310504,19.4132048 L164.541045,19.5088556 L164.541045,20.1349667 L161.114727,20.1349667 L161.114727,19.5088556 Z" id="Fill-45" fill="#FEFEFE" mask="url(#mask-4)"></path>
                    <path d="M169.738289,16.0602063 C169.738289,15.6002063 169.65472,15.2625079 169.488678,15.046746 C169.322635,14.8313492 169.070104,14.7232857 168.730355,14.7232857 C168.397905,14.7232857 168.141725,14.8313492 167.96145,15.046746 C167.781175,15.2625079 167.691038,15.5863333 167.691038,16.0178571 C167.691038,16.9444286 168.044289,17.4077143 168.751886,17.4077143 C169.409488,17.4077143 169.738289,16.9586667 169.738289,16.0602063 M169.992645,21.9441905 C170.317796,21.7280635 170.480555,21.4294286 170.480555,21.0475556 C170.480555,20.7430794 170.401,20.5240317 170.242256,20.3893175 C170.082782,20.2549683 169.798137,20.1881587 169.388322,20.1881587 L168.231863,20.1881587 C168.055237,20.1881587 167.892479,20.1772063 167.743953,20.1560317 C167.55346,20.4108571 167.457848,20.7149683 167.457848,21.0687302 C167.457848,21.4575397 167.563678,21.7547143 167.775701,21.9598889 C167.98809,22.1650635 168.341706,22.2676508 168.83655,22.2676508 C169.282128,22.2676508 169.667493,22.1595873 169.992645,21.9441905 M166.619607,22.5542381 C166.195559,22.2574286 165.983536,21.8540159 165.983536,21.3447302 C165.983536,21.0544921 166.080607,20.7803175 166.275114,20.5222063 C166.469621,20.2640952 166.704635,20.0713333 166.980156,19.9439206 C166.655005,19.7529841 166.492246,19.448873 166.492246,19.0312222 C166.492246,18.7906349 166.569976,18.5624603 166.725801,18.3470635 C166.881261,18.1313016 167.083066,17.9633651 167.330123,17.8428889 C166.941474,17.6946667 166.65172,17.4679524 166.460863,17.1634762 C166.26964,16.8593651 166.174028,16.4990317 166.174028,16.081381 C166.174028,15.6779683 166.29263,15.3263968 166.529469,15.0255714 C166.766308,14.7251111 167.084891,14.4932857 167.484123,14.3308254 C167.88372,14.1676349 168.316526,14.0865873 168.783635,14.0865873 C169.610929,14.0865873 170.226199,14.2453968 170.629081,14.563746 C170.720678,14.4436349 170.876502,14.3308254 171.095825,14.2245873 C171.314782,14.1183492 171.541038,14.0654127 171.774592,14.0654127 L172.14609,14.0654127 L172.14609,15.2219841 L171.053493,15.2219841 C171.159687,15.4483333 171.212602,15.6885556 171.212602,15.943381 C171.219536,16.5870159 170.99328,17.1021429 170.533834,17.4873016 C170.074024,17.8731905 169.444521,18.0655873 168.645692,18.0655873 C168.313242,18.0655873 168.034071,18.041127 167.807815,17.9914762 C167.737019,18.0834762 167.681915,18.1809524 167.643232,18.2831746 C167.604185,18.3857619 167.585209,18.4759365 167.585209,18.5536984 C167.585209,18.7873492 167.668047,18.9461587 167.83409,19.0312222 C168.000133,19.1162857 168.299374,19.1586349 168.730355,19.1586349 L169.865649,19.1586349 C171.307848,19.1586349 172.029313,19.6821587 172.029313,20.7292063 C172.029313,21.1676667 171.873853,21.560127 171.562569,21.9073175 C171.251284,22.2534127 170.83782,22.5224762 170.32181,22.7134127 C169.805436,22.9043492 169.257313,23 168.677441,23 C167.72972,23 167.044019,22.8514127 166.619607,22.5542381" id="Fill-46" fill="#FEFEFE" mask="url(#mask-4)"></path>
                    <path d="M173.3655,13.0465127 C173.217339,12.8982905 173.143258,12.7069889 173.143258,12.4737032 C173.143258,12.2046397 173.227557,11.9819413 173.397614,11.8052429 C173.567306,11.6281794 173.793562,11.5398302 174.076382,11.5398302 C174.359201,11.5398302 174.574509,11.6157667 174.7234,11.7676397 C174.871927,11.9202429 174.946007,12.109354 174.946007,12.3357032 C174.946007,12.6186397 174.861344,12.8449889 174.691652,13.0147508 C174.52196,13.1845127 174.285121,13.2692111 173.981135,13.2692111 L173.970187,13.2692111 C173.715832,13.2692111 173.514026,13.1951 173.3655,13.0465127 L173.3655,13.0465127 Z M173.408197,15.2431952 L172.654983,15.0416714 L172.654983,14.3308619 L174.59604,14.0972111 L174.617571,14.0972111 L174.914258,14.3093222 L174.914258,19.4131317 L175.624775,19.4981952 L175.624775,20.1348937 L172.665566,20.1348937 L172.665566,19.4981952 L173.408197,19.4025444 L173.408197,15.2431952 Z" id="Fill-47" fill="#FEFEFE" mask="url(#mask-4)"></path>
                    <path d="M176.61636,15.5931603 C176.860132,15.1192873 177.210829,14.7494619 177.666625,14.4844143 C178.122786,14.2190016 178.654488,14.0864778 179.262824,14.0864778 C179.546009,14.0864778 179.789782,14.1076524 179.994872,14.1500016 C180.199597,14.1923508 180.429867,14.2489381 180.684222,14.3201286 L180.991857,14.404827 L180.927995,16.2192714 L180.005819,16.2192714 L179.740516,15.0521127 C179.697819,14.8684778 179.48908,14.7761127 179.114298,14.7761127 C178.718715,14.7761127 178.408891,14.9495254 178.186284,15.2963508 C177.963312,15.6428111 177.84836,16.1838587 177.841426,16.9198587 C177.841426,17.6982079 177.976085,18.2936524 178.245037,18.7076524 C178.513625,19.1216524 178.870526,19.3282873 179.315739,19.3282873 C179.853279,19.3282873 180.348488,19.1837159 180.801,18.8934778 L181.045137,19.4451127 C180.860848,19.6433508 180.579853,19.8273508 180.201421,19.9971127 C179.823355,20.1665095 179.414635,20.251573 178.977085,20.251573 C178.071696,20.251573 177.390739,19.9722873 176.934578,19.4133508 C176.478782,18.8547794 176.250701,18.1224302 176.250701,17.2166683 C176.250701,16.608446 176.372587,16.0673984 176.61636,15.5931603" id="Fill-48" fill="#FEFEFE" mask="url(#mask-4)"></path>
                    <path d="M184.757413,19.2382587 C184.948271,19.1499095 185.114678,19.041846 185.255906,18.9144333 L185.255906,17.1744651 C184.61947,17.1744651 184.143602,17.2825286 183.829399,17.4979254 C183.51483,17.7136873 183.357181,17.9915127 183.357181,18.3310365 C183.357181,18.6705603 183.4371,18.9286714 183.595844,19.1057349 C183.755318,19.2824333 183.972451,19.3707825 184.248337,19.3707825 C184.396863,19.3707825 184.56692,19.3266079 184.757413,19.2382587 M182.747019,17.0255127 C183.394403,16.7005921 184.23082,16.5341159 185.255906,16.5268143 L185.255906,16.2829413 C185.255906,15.9930683 185.225617,15.766719 185.165403,15.6038937 C185.105555,15.4414333 184.996076,15.3191317 184.836967,15.237719 C184.677858,15.1563063 184.445764,15.1157825 184.142143,15.1157825 C183.795825,15.1157825 183.484541,15.1599571 183.209019,15.2483063 C182.933133,15.3366556 182.646664,15.4520206 182.349612,15.5933063 L182.020811,14.9138937 C182.127005,14.8222587 182.305091,14.7127349 182.556527,14.5853222 C182.807233,14.4579095 183.106109,14.3465603 183.452792,14.2509095 C183.799109,14.1552587 184.156375,14.1074333 184.523858,14.1074333 C185.068697,14.1074333 185.494569,14.1786238 185.801839,14.3199095 C186.109839,14.4615603 186.330986,14.6875444 186.46528,14.9993222 C186.599574,15.3103698 186.666721,15.7280206 186.666721,16.2511794 L186.666721,19.4981952 L187.239294,19.4981952 L187.239294,20.0925444 C187.097702,20.1283222 186.896261,20.1630048 186.634972,20.1984175 C186.373318,20.2341952 186.143413,20.251354 185.945256,20.251354 C185.705133,20.251354 185.543835,20.2163063 185.463185,20.145481 C185.381441,20.0750206 185.340934,19.9300841 185.340934,19.7103063 L185.340934,19.4240841 C185.149711,19.6361952 184.90229,19.8271317 184.597939,19.9968937 C184.293953,20.1666556 183.951285,20.251354 183.569204,20.251354 C183.244418,20.251354 182.945176,20.182719 182.672939,20.044719 C182.400702,19.906719 182.183204,19.7051952 182.020811,19.4401476 C181.858418,19.1747349 181.776673,18.8545603 181.776673,18.4796238 C181.776673,17.8356238 182.100365,17.3511635 182.747019,17.0255127" id="Fill-49" fill="#FEFEFE" mask="url(#mask-4)"></path>
                    <polygon id="Fill-50" fill="#FEFEFE" mask="url(#mask-4)" points="188.511838 12.3780524 187.727241 12.2400524 187.727241 11.6672429 189.689464 11.4335921 189.710629 11.4335921 189.996734 11.635481 189.996734 19.4134968 190.771113 19.4981952 190.771113 20.1348937 187.769573 20.1348937 187.769573 19.4981952 188.511838 19.4025444"></polygon>
                    <polygon id="Fill-51" fill="#FEFEFE" mask="url(#mask-4)" points="196.531005 12.9509714 195.013995 13.004273 194.600166 15.3170508 193.709739 15.3170508 193.890014 12.2507492 200.731336 12.2507492 200.858332 15.3170508 200.02082 15.3170508 199.606991 13.004273 198.111147 12.9509714 198.111147 19.3920667 199.596043 19.4983048 199.596043 20.1350032 195.173104 20.1350032 195.173104 19.4983048 196.531005 19.3920667"></polygon>
                    <path d="M205.069392,16.6331619 C205.083625,16.4352889 205.090923,16.2830508 205.090923,16.1768127 C205.090923,15.2363683 204.775625,14.765781 204.146852,14.765781 C203.799805,14.765781 203.531582,14.903781 203.340359,15.1794159 C203.149501,15.4550508 203.043307,15.9402413 203.022141,16.6331619 L205.069392,16.6331619 Z M202.157625,19.4293048 C201.701464,18.8809556 201.473383,18.1329079 201.473383,17.1851619 C201.473383,16.5484635 201.591985,15.9964635 201.828824,15.5298921 C202.066027,15.0625905 202.399937,14.7059079 202.831283,14.458019 C203.262629,14.2101302 203.761122,14.0863683 204.327127,14.0863683 C205.033994,14.0863683 205.578468,14.2721937 205.960184,14.6438444 C206.342264,15.0147651 206.540056,15.5441302 206.554288,16.2301143 C206.554288,16.6970508 206.525824,17.0435111 206.469625,17.2698603 L203.022141,17.2698603 C203.050606,17.9138603 203.202781,18.4143841 203.478302,18.7710667 C203.754189,19.1288444 204.146852,19.3070032 204.655563,19.3070032 C204.931449,19.3070032 205.216094,19.2613683 205.509497,19.1693683 C205.8029,19.0773683 206.034994,18.9678444 206.203956,18.8404317 L206.469625,19.4241937 C206.278402,19.6290032 205.969307,19.8184794 205.541245,19.991527 C205.113549,20.1649397 204.680378,20.2514635 204.242099,20.2514635 C203.308975,20.2514635 202.613786,19.977654 202.157625,19.4293048 L202.157625,19.4293048 Z" id="Fill-52" fill="#FEFEFE" mask="url(#mask-4)"></path>
                    <path d="M207.630318,15.5931603 C207.874455,15.1192873 208.224787,14.7494619 208.680583,14.4844143 C209.136744,14.2190016 209.66881,14.0864778 210.277147,14.0864778 C210.559602,14.0864778 210.803739,14.1076524 211.009194,14.1500016 C211.213919,14.1923508 211.443825,14.2489381 211.69818,14.3201286 L212.005815,14.404827 L211.942318,16.2192714 L211.019777,16.2192714 L210.754474,15.0521127 C210.711777,14.8684778 210.503038,14.7761127 210.128621,14.7761127 C209.732308,14.7761127 209.422848,14.9495254 209.200607,15.2963508 C208.977635,15.6428111 208.862682,16.1838587 208.855384,16.9198587 C208.855384,17.6982079 208.990043,18.2936524 209.25863,18.7076524 C209.527583,19.1216524 209.884483,19.3282873 210.329697,19.3282873 C210.867602,19.3282873 211.362445,19.1837159 211.814957,18.8934778 L212.059095,19.4451127 C211.875171,19.6433508 211.59381,19.8273508 211.215379,19.9971127 C210.837313,20.1665095 210.428957,20.251573 209.990678,20.251573 C209.085289,20.251573 208.405062,19.9722873 207.948536,19.4133508 C207.492739,18.8547794 207.264659,18.1224302 207.264659,17.2166683 C207.264659,16.608446 207.38691,16.0673984 207.630318,15.5931603" id="Fill-53" fill="#FEFEFE" mask="url(#mask-4)"></path>
                    <path d="M213.406084,12.3780524 L212.600321,12.2400524 L212.600321,11.6672429 L214.573127,11.4335921 L214.604875,11.4335921 L214.880762,11.635481 L214.89098,14.0015603 L214.816899,14.924846 C215.036221,14.726973 215.334733,14.542973 215.713164,14.3732111 C216.091231,14.2030841 216.489003,14.1183857 216.906847,14.1183857 C217.35206,14.1183857 217.698743,14.2016238 217.9458,14.3677349 C218.193221,14.533846 218.366563,14.786846 218.465823,15.1263698 C218.564719,15.4658937 218.613984,15.9185921 218.613984,16.4848302 L218.613984,19.4025444 L219.293117,19.4981952 L219.293117,20.1348937 L216.503236,20.1348937 L216.503236,19.4981952 L217.118871,19.4025444 L217.118871,16.4848302 C217.118871,16.1168302 217.093326,15.8302429 217.044425,15.6254333 C216.994795,15.4198937 216.904657,15.2680206 216.774013,15.1690841 C216.643003,15.0697825 216.450321,15.0201317 216.195965,15.0201317 C215.976643,15.0201317 215.752212,15.0716079 215.522307,15.1741952 C215.292401,15.2764175 215.088771,15.398719 214.91251,15.5403698 L214.91251,19.4025444 L215.559164,19.4981952 L215.559164,20.1348937 L212.812345,20.1348937 L212.812345,19.4981952 L213.406084,19.4134968 L213.406084,12.3780524 Z" id="Fill-54" fill="#FEFEFE" mask="url(#mask-4)"></path>
                </g>
            </g>
        </g>
    </g>
</svg>