<?xml version="1.0" encoding="UTF-8"?>
<svg width="24px" height="24px" viewBox="0 0 24 24" version="1.1" xmlns="http://www.w3.org/2000/svg" xmlns:xlink="http://www.w3.org/1999/xlink">
    <title>icon/kejian</title>
    <g id="icon/kejian" stroke="none" stroke-width="1" fill="none" fill-rule="evenodd">
        <path d="M12,7 C15.2952463,7 18.281944,8.7934479 20.9600931,12.3803437 C21.0024848,12.4371197 21.0109632,12.5107917 20.9855281,12.5743261 L20.9600931,12.6196537 L20.7081139,12.950672 C18.0949749,16.3168907 15.1922703,18 12,18 C8.70475374,18 5.71805604,16.2065521 3.0399069,12.6196563 C2.99751519,12.5628803 2.98903684,12.4892083 3.01447186,12.4256739 L3.03990688,12.3803463 L3.29188612,12.049328 C5.90502507,8.68310934 8.80772969,7 12,7 Z M12.0452937,9.00513458 C10.1018096,9.00513458 8.52630436,10.572138 8.52630436,12.5051346 C8.52630436,14.4381312 10.1018096,16.0051346 12.0452937,16.0051346 C13.9887779,16.0051346 15.5642831,14.4381312 15.5642831,12.5051346 C15.5642831,10.572138 13.9887779,9.00513458 12.0452937,9.00513458 Z M12.0452937,10.9955254 C12.8782155,10.9955254 13.553432,11.6670982 13.553432,12.4955254 C13.553432,13.3239525 12.8782155,13.9955254 12.0452937,13.9955254 C11.2123719,13.9955254 10.5371554,13.3239525 10.5371554,12.4955254 C10.5371554,11.6670982 11.2123719,10.9955254 12.0452937,10.9955254 Z" id="形状结合" fill="#C9D3E6"></path>
    </g>
</svg>